<svg width="30" height="30" viewBox="0 0 30 30" fill="none" xmlns="http://www.w3.org/2000/svg">
<path d="M14.25 22.7014L23.495 13.4564C21.9396 12.807 20.527 11.8582 19.3375 10.6639C18.1427 9.47416 17.1934 8.06111 16.5438 6.50514L7.29877 15.7501C6.57752 16.4714 6.21627 16.8326 5.90627 17.2301C5.54016 17.6992 5.22622 18.2068 4.97002 18.7439C4.75377 19.1989 4.59252 19.6839 4.27002 20.6514L2.56752 25.7551C2.48917 25.9888 2.47754 26.2397 2.53395 26.4797C2.59037 26.7196 2.71258 26.939 2.88686 27.1133C3.06114 27.2876 3.28058 27.4098 3.52051 27.4662C3.76043 27.5226 4.01134 27.511 4.24502 27.4326L9.34877 25.7301C10.3175 25.4076 10.8013 25.2464 11.2563 25.0301C11.7938 24.7739 12.3013 24.4601 12.77 24.0939C13.1675 23.7839 13.5288 23.4226 14.25 22.7014ZM26.06 10.8914C26.9818 9.9696 27.4997 8.71938 27.4997 7.41576C27.4997 6.11215 26.9818 4.86193 26.06 3.94014C25.1382 3.01835 23.888 2.50049 22.5844 2.50049C21.2808 2.50049 20.0306 3.01835 19.1088 3.94014L18 5.04889L18.0475 5.18764C18.5939 6.75104 19.488 8.17002 20.6625 9.33764C21.8651 10.5473 23.3337 11.459 24.9513 12.0001L26.06 10.8914Z" fill="white" fill-opacity="0.9"/>
</svg>
